<?xml version="1.0" standalone="no"?>
<!DOCTYPE svg PUBLIC "-//W3C//DTD SVG 20010904//EN"
 "http://www.w3.org/TR/2001/REC-SVG-20010904/DTD/svg10.dtd">
<svg version="1.0" xmlns="http://www.w3.org/2000/svg"
 width="864.000000pt" height="1090.000000pt" viewBox="0 0 864.000000 1090.000000"
 preserveAspectRatio="xMidYMid meet">
<metadata>
Created by potrace 1.15, written by Peter Selinger 2001-2017
</metadata>
<g transform="translate(0.000000,1090.000000) scale(0.100000,-0.100000)"
fill="#000000" stroke="none">
<path d="M0 10875 l0 -25 4320 0 4320 0 0 25 0 25 -4320 0 -4320 0 0 -25z"/>
<path d="M4105 8949 c-412 -26 -823 -123 -1199 -284 -640 -273 -1191 -729
-1581 -1305 -106 -158 -239 -399 -296 -535 -18 -44 -38 -89 -45 -100 -20 -31
-122 -328 -155 -451 -75 -282 -109 -527 -116 -840 -7 -295 5 -474 48 -714 49
-274 101 -459 200 -712 44 -110 174 -383 227 -473 159 -273 336 -505 558 -731
622 -633 1440 -1009 2336 -1073 638 -46 1301 88 1873 379 159 81 324 177 417
244 31 23 66 48 78 56 13 8 59 44 104 79 314 248 579 535 798 866 246 372 433
825 518 1256 55 279 71 439 71 719 0 244 -7 343 -36 541 -131 890 -597 1707
-1297 2274 -88 71 -207 162 -236 180 -9 6 -35 22 -57 36 -480 308 -964 488
-1515 563 -108 15 -454 37 -530 34 -19 0 -93 -5 -165 -9z m542 -162 c78 -42
107 -108 93 -212 -8 -53 -14 -64 -49 -96 -49 -44 -103 -59 -210 -59 l-80 0 -6
-34 c-4 -18 -6 -46 -4 -62 9 -118 -9 -157 -70 -152 -58 5 -61 18 -61 321 l0
268 26 26 25 25 152 -4 c119 -3 159 -8 184 -21z m598 -101 c61 -28 111 -69
131 -108 24 -45 44 -119 44 -158 0 -41 -31 -164 -50 -200 -58 -109 -168 -170
-283 -157 -101 11 -156 35 -213 91 -81 82 -103 185 -68 319 20 79 38 113 83
160 39 41 78 66 126 78 51 14 175 0 230 -25z m-1870 -65 c17 -9 39 -34 50 -54
18 -34 19 -39 5 -64 -24 -43 -61 -42 -112 1 -31 27 -51 36 -77 36 -46 0 -102
-30 -121 -64 -14 -26 -14 -28 13 -52 27 -23 35 -24 155 -24 150 0 196 -15 236
-77 98 -150 -43 -332 -257 -333 -128 0 -242 114 -180 182 27 30 60 22 111 -27
40 -39 51 -45 89 -45 78 0 133 44 133 107 0 55 -31 67 -182 70 -113 2 -133 5
-169 25 -71 40 -100 136 -64 212 50 105 263 167 370 107z m2327 -48 c10 -9 18
-29 18 -44 0 -15 -45 -120 -100 -234 -55 -114 -100 -210 -100 -214 0 -4 54
-33 121 -65 131 -63 152 -84 131 -131 -19 -41 -59 -32 -227 49 -178 86 -196
104 -172 163 34 85 221 457 238 474 23 23 66 25 91 2z m-3018 -305 c116 -87
316 -246 354 -282 41 -39 45 -87 7 -112 -33 -22 -61 -13 -123 37 l-52 41 -68
-38 c-37 -20 -84 -47 -105 -58 l-37 -21 6 -86 c7 -85 6 -87 -19 -103 -49 -33
-107 10 -107 78 0 24 -15 124 -45 306 -23 139 -29 234 -15 259 15 29 68 52 99
45 14 -3 61 -33 105 -66z m3588 -35 c39 -35 25 -70 -95 -239 -62 -87 -132
-187 -156 -222 -50 -75 -76 -90 -117 -71 -23 11 -30 22 -32 51 -2 21 2 47 9
59 22 41 281 404 301 422 25 22 66 22 90 0z m-1582 -229 c545 -73 1029 -303
1468 -697 62 -55 129 -121 150 -146 20 -25 46 -55 58 -66 30 -30 144 -179 203
-267 144 -215 279 -511 346 -754 74 -270 99 -454 98 -734 0 -455 -88 -824
-294 -1230 -186 -367 -448 -675 -805 -945 -55 -42 -91 -65 -239 -153 -290
-173 -604 -281 -1005 -344 -130 -20 -585 -17 -721 5 -475 77 -874 243 -1234
512 -593 445 -969 1093 -1060 1826 -17 142 -20 487 -5 624 37 331 146 681 302
970 160 297 325 506 593 749 78 71 227 186 240 186 3 0 31 20 62 44 66 49 310
183 417 228 296 124 580 191 906 212 106 7 406 -5 520 -20z m1920 -32 c105
-55 163 -144 163 -252 0 -107 -44 -161 -109 -131 -25 11 -25 12 -18 104 6 91
6 93 -21 125 -56 66 -116 78 -200 38 -53 -25 -108 -78 -143 -137 -45 -74 -20
-168 56 -212 36 -21 99 -25 131 -8 11 6 36 11 56 11 28 0 38 -5 46 -24 31 -66
-35 -116 -151 -116 -45 0 -84 6 -106 16 -54 26 -117 87 -149 145 -82 148 5
353 188 444 45 22 63 25 132 23 61 -2 91 -9 125 -26z m-4500 -20 c34 -34 36
-51 49 -339 5 -112 12 -207 16 -213 4 -6 54 34 113 91 113 106 151 133 177
123 22 -9 37 -41 30 -64 -8 -26 -313 -310 -349 -325 -39 -17 -81 -2 -94 33 -6
15 -16 143 -23 285 -7 142 -17 257 -22 257 -5 0 -43 -33 -85 -72 -41 -40 -84
-81 -94 -90 -21 -21 -68 -24 -86 -6 -28 28 -12 57 81 146 158 153 218 202 245
202 7 0 26 -13 42 -28z m4866 -397 c46 -46 19 -87 -146 -221 -36 -29 -94 -78
-130 -108 -141 -120 -172 -134 -210 -96 -25 25 -26 70 -1 96 37 39 342 292
397 329 46 31 59 31 90 0z m-5289 -146 c40 -15 91 -67 104 -107 6 -19 8 -53 4
-79 l-7 -45 74 6 c86 8 183 -6 209 -30 23 -21 24 -52 3 -82 -15 -22 -21 -22
-177 -21 l-162 0 -32 -35 c-18 -20 -33 -40 -33 -45 0 -5 34 -33 76 -63 97 -68
114 -86 114 -119 0 -37 -43 -71 -79 -63 -14 4 -89 51 -166 105 -77 54 -171
120 -208 146 -76 53 -97 77 -97 109 0 46 191 297 243 319 39 17 96 19 134 4z
m5630 -291 c26 -29 37 -63 29 -93 -3 -13 -41 -67 -84 -119 -42 -52 -108 -134
-147 -183 -145 -182 -172 -203 -223 -167 -35 24 -29 70 18 129 22 28 40 56 40
63 0 18 -89 184 -106 197 -7 7 -36 8 -76 4 -82 -8 -112 4 -116 50 -7 67 3 71
338 111 96 12 177 23 179 26 2 2 32 4 66 4 51 0 65 -4 82 -22z m-6076 -258
c31 -17 23 -57 -36 -200 -30 -73 -55 -134 -55 -135 0 -7 120 -46 127 -42 5 3
31 57 57 119 57 132 73 151 116 136 25 -8 30 -15 30 -44 0 -19 -11 -57 -25
-83 -31 -62 -65 -151 -65 -172 0 -18 128 -75 141 -62 4 4 33 66 64 138 31 71
61 135 67 142 14 18 63 16 78 -2 7 -9 10 -29 7 -48 -8 -47 -137 -347 -159
-369 -34 -34 -29 -36 -393 119 -82 35 -156 72 -162 80 -22 29 -15 59 57 229
85 204 99 222 151 194z m6317 -207 c21 -29 15 -70 -15 -91 -16 -11 -121 -50
-235 -87 -115 -37 -210 -71 -213 -75 -3 -5 13 -65 36 -134 35 -106 40 -130 31
-151 -15 -32 -57 -43 -82 -20 -23 21 -120 310 -120 359 0 45 27 64 150 103 47
14 144 45 215 69 72 23 139 45 150 47 30 7 69 -2 83 -20z m-6255 -484 c125
-20 164 -35 210 -78 51 -47 62 -78 61 -176 -2 -138 -43 -223 -128 -264 -56
-28 -126 -27 -341 4 -146 20 -172 26 -187 45 -22 27 -23 59 -4 86 17 23 63 24
206 5 231 -31 290 -28 320 21 45 74 30 162 -33 191 -18 8 -66 19 -107 26 -336
51 -336 51 -345 92 -5 20 -1 38 10 56 17 25 17 25 119 18 55 -4 154 -15 219
-26z m6400 -68 c33 -13 43 -45 62 -211 23 -206 23 -229 0 -246 -53 -39 -80 -3
-95 126 -6 52 -15 115 -19 140 l-7 45 -59 -3 c-33 -1 -63 -6 -68 -11 -4 -4 -2
-69 5 -143 13 -152 9 -168 -43 -168 -43 0 -43 0 -75 258 -5 40 -7 42 -38 42
-18 0 -55 -3 -81 -7 l-47 -6 6 -61 c16 -162 18 -266 6 -281 -17 -21 -53 -19
-74 3 -17 20 -56 277 -56 378 0 86 0 86 265 119 72 8 159 20 195 24 92 12 96
12 123 2z m-345 -558 c29 -7 45 -45 32 -78 -5 -13 -28 -34 -50 -45 -68 -35
-80 -52 -80 -119 0 -49 4 -65 26 -90 30 -36 74 -41 103 -12 10 10 29 57 41
103 40 151 89 216 172 228 53 7 94 -5 131 -39 43 -39 59 -78 67 -160 10 -96
-8 -159 -58 -213 -65 -69 -152 -62 -152 13 0 23 9 36 49 64 56 41 61 49 61
114 0 58 -21 91 -59 91 -40 0 -56 -24 -86 -130 -31 -109 -53 -156 -87 -187
-68 -64 -186 -55 -256 19 -56 60 -77 194 -47 296 19 63 52 104 108 131 46 23
51 24 85 14z m-6395 -45 c14 -11 17 -36 19 -153 l3 -140 70 0 70 0 2 95 c3
111 7 133 29 154 19 20 35 20 60 2 16 -12 20 -31 24 -133 l5 -118 117 -5 c92
-4 122 -9 138 -22 25 -22 26 -59 1 -89 -19 -24 -20 -24 -274 -27 -265 -3 -329
3 -342 36 -10 23 -19 324 -11 355 12 51 54 71 89 45z m761 -1633 l31 -90 109
-5 c67 -3 111 -9 113 -16 4 -13 -66 -73 -114 -98 -51 -26 -53 -39 -22 -134 45
-135 43 -136 -76 -57 -45 30 -87 55 -92 55 -5 0 -45 -25 -88 -55 -80 -55 -105
-66 -105 -42 0 6 14 50 30 96 17 46 30 87 30 91 0 5 -36 34 -80 65 -83 58 -97
72 -85 83 4 4 54 9 113 12 l106 5 17 45 c10 25 25 67 35 93 25 69 41 58 78
-48z m5411 10 c17 -44 34 -86 38 -92 6 -9 39 -13 105 -13 53 0 103 -4 110 -9
17 -11 -3 -31 -93 -92 -36 -24 -65 -51 -65 -59 0 -17 28 -105 41 -132 11 -23
12 -68 0 -68 -4 0 -47 25 -95 56 l-87 57 -83 -57 c-46 -31 -88 -56 -95 -56
-18 0 -13 39 16 121 32 89 31 91 -52 145 -74 47 -100 75 -83 85 7 5 59 9 114
9 l101 0 26 73 c14 39 29 82 32 95 13 44 39 20 70 -63z m-4800 -719 c17 -48
38 -91 45 -97 8 -5 59 -9 113 -9 86 0 97 -2 97 -18 0 -9 -19 -29 -42 -44 -97
-62 -118 -79 -118 -94 0 -9 11 -48 25 -86 47 -129 31 -137 -90 -48 -65 48 -79
52 -107 31 -63 -49 -129 -91 -143 -91 -21 0 -19 29 11 110 14 39 24 78 22 87
-2 9 -37 39 -78 68 -107 75 -105 85 17 85 64 0 105 4 115 13 9 6 26 44 38 82
43 134 52 135 95 11z m4168 52 c8 -24 23 -66 32 -95 9 -28 23 -54 31 -57 9 -3
60 -6 115 -6 124 0 127 -10 22 -80 -43 -29 -81 -58 -85 -64 -4 -7 6 -52 22
-101 17 -48 30 -92 30 -97 0 -19 -38 -5 -107 42 -40 28 -80 50 -87 50 -7 0
-47 -22 -87 -50 -69 -46 -109 -62 -109 -42 0 5 13 48 30 96 22 66 27 92 19
104 -6 9 -44 38 -85 64 -104 67 -100 78 29 78 117 0 125 4 147 75 25 85 43
125 55 125 7 0 19 -19 28 -42z m-3216 -540 c6 -7 22 -50 37 -95 15 -45 34 -84
42 -87 9 -3 58 -6 110 -6 74 0 94 -3 94 -14 0 -15 -44 -52 -117 -99 -24 -15
-43 -32 -43 -38 0 -7 14 -52 31 -101 19 -57 27 -94 21 -100 -6 -6 -40 12 -90
46 -45 31 -89 56 -99 56 -10 0 -51 -23 -92 -50 -75 -51 -101 -60 -101 -37 0 6
12 49 26 94 15 44 24 88 21 96 -3 9 -40 39 -81 67 -104 69 -101 80 20 80 52 0
104 4 114 10 10 5 24 27 31 47 27 85 51 143 58 143 5 0 13 -6 18 -12z m2220 0
c6 -7 22 -50 37 -95 18 -54 33 -83 44 -86 9 -2 57 -5 107 -6 49 -2 93 -5 98
-8 13 -8 -19 -38 -88 -83 -35 -23 -66 -48 -69 -55 -3 -8 8 -55 25 -106 18 -57
26 -96 20 -102 -5 -5 -39 12 -89 47 -44 31 -88 56 -98 56 -11 0 -30 -9 -44
-20 -14 -11 -29 -20 -33 -20 -4 0 -20 -11 -35 -25 -28 -27 -68 -42 -80 -31 -3
4 6 44 21 89 15 45 27 90 27 99 0 10 -35 42 -80 74 -44 32 -80 63 -80 71 0 10
24 13 104 13 74 0 107 4 115 13 6 8 19 40 30 73 23 73 42 114 51 114 4 0 12
-6 17 -12z m-1102 -289 c16 -47 34 -90 38 -97 5 -8 41 -12 107 -12 139 0 142
-13 19 -95 -38 -26 -69 -55 -69 -64 0 -9 11 -49 25 -89 26 -77 31 -112 17
-112 -5 0 -46 25 -91 55 -45 30 -88 55 -95 55 -7 0 -43 -22 -82 -48 -38 -27
-77 -52 -86 -55 -26 -9 -23 25 7 109 14 38 25 76 25 85 0 9 -28 35 -64 58 -73
48 -101 75 -91 90 4 7 46 11 104 11 67 0 102 4 109 13 5 6 22 48 37 92 15 44
29 84 32 88 12 20 30 -6 58 -84z"/>
<path d="M4398 8688 c-3 -7 -4 -44 -4 -82 1 -69 1 -70 31 -78 45 -12 124 2
153 27 34 29 36 86 4 118 -19 18 -36 22 -101 25 -59 3 -79 1 -83 -10z"/>
<path d="M5072 8600 c-79 -19 -142 -121 -142 -233 0 -75 12 -107 59 -151 26
-25 42 -30 91 -34 53 -4 65 -1 100 23 96 66 130 258 62 340 -41 48 -108 70
-170 55z"/>
<path d="M2598 8175 c-6 -7 32 -208 41 -218 6 -6 122 51 139 68 2 1 -37 37
-86 78 -49 42 -92 74 -94 72z"/>
<path d="M3861 7271 c-7 -5 -11 -13 -7 -19 3 -6 -11 -12 -37 -15 -23 -3 -63
-10 -89 -15 -44 -8 -47 -7 -58 17 l-12 25 -18 -24 c-18 -23 -20 -24 -35 -9
-15 14 -20 15 -44 3 -15 -8 -33 -26 -40 -40 -9 -20 -17 -25 -34 -20 -30 7 -44
-4 -50 -39 l-4 -30 -2 33 c0 18 -6 32 -13 32 -21 -1 -48 -26 -48 -44 0 -18
-11 -21 -26 -6 -8 8 -15 6 -24 -5 -16 -20 -34 -19 -56 2 -13 13 -19 14 -22 5
-2 -6 -10 -12 -18 -12 -8 0 -23 -13 -32 -30 -13 -22 -25 -30 -51 -32 -33 -3
-34 -4 -17 -20 18 -19 14 -38 -9 -38 -8 0 -19 -9 -25 -20 -6 -11 -17 -20 -26
-20 -9 0 -14 -7 -12 -17 2 -13 -5 -19 -22 -21 -43 -6 -44 -20 -2 -32 23 -6 44
-15 47 -20 9 -14 -9 -12 -22 1 -13 13 -15 6 -28 -76 -4 -21 -13 -51 -20 -65
-15 -28 -10 -43 18 -53 25 -9 21 -46 -5 -57 -16 -6 -18 -9 -6 -9 9 -1 25 -4
35 -8 15 -6 16 -4 6 9 -7 8 -10 18 -6 21 12 12 41 7 47 -8 3 -10 19 -15 45
-15 31 0 47 -7 75 -34 l36 -33 0 -606 c0 -404 -4 -615 -11 -634 -10 -26 -43
-76 -96 -143 -13 -15 -23 -36 -23 -46 -1 -23 -18 -46 -45 -62 -11 -6 -14 -12
-7 -12 14 0 16 -46 2 -55 -5 -3 -10 -1 -10 6 0 6 -12 23 -26 36 l-26 24 7 -38
c3 -21 11 -42 16 -47 13 -14 11 -120 -3 -134 -20 -20 -30 -14 -27 16 1 15 -1
34 -4 42 -40 112 -58 248 -31 243 8 -1 9 11 3 40 -4 23 -8 65 -9 92 -1 80 -16
88 -35 19 -9 -32 -20 -69 -26 -82 -14 -34 -11 -111 5 -127 33 -33 83 -332 54
-323 -7 3 -16 20 -20 39 -19 85 -38 197 -38 231 0 28 -5 38 -21 43 -11 4 -27
22 -36 40 -11 23 -25 35 -44 39 -21 4 -29 12 -30 28 -1 13 -3 37 -4 53 -6 52
-6 209 -1 230 2 11 5 23 5 28 2 16 27 6 36 -15 6 -12 17 -26 26 -31 21 -13 68
-1 76 19 9 23 -29 55 -68 57 -26 2 -34 7 -39 25 l-5 24 -19 -21 c-11 -12 -23
-21 -28 -21 -17 0 -7 59 18 106 34 65 54 173 54 299 0 79 3 105 15 115 13 11
15 7 15 -29 0 -22 5 -41 10 -41 13 0 13 56 0 81 -7 13 -8 37 -1 72 5 28 7 54
5 56 -11 11 -61 -53 -71 -91 -23 -88 -30 -138 -21 -144 11 -7 3 -159 -9 -177
-5 -7 -10 5 -13 28 -5 32 -7 21 -14 -52 -10 -118 -26 -136 -51 -56 -10 32 -24
67 -31 78 -8 11 -14 27 -14 37 0 10 -4 18 -9 18 -4 0 -6 11 -3 25 2 15 0 25
-7 25 -6 0 -11 -5 -11 -12 0 -6 -3 -8 -6 -5 -4 4 -2 13 5 20 16 20 4 46 -19
40 -15 -4 -24 6 -41 43 -13 27 -32 61 -42 76 -11 14 -16 31 -12 38 9 15 50
-23 76 -70 15 -30 18 -32 19 -12 0 12 10 32 22 44 16 16 23 37 26 81 5 66 17
77 56 52 30 -20 62 -12 71 16 8 24 -10 49 -36 49 -10 0 -23 9 -29 20 -9 17 -6
25 21 49 28 26 31 33 25 65 -6 33 -10 36 -39 36 -44 0 -71 -42 -57 -89 5 -20
5 -42 0 -57 -11 -28 -10 -27 -45 -14 -21 8 -24 14 -19 35 5 19 1 31 -14 45
-23 22 -20 54 9 74 31 21 80 89 77 106 -4 20 73 173 107 215 24 29 25 29 42
12 17 -17 17 -19 1 -31 -10 -7 -18 -18 -18 -23 0 -6 -9 -13 -20 -16 -11 -3
-20 -12 -20 -21 0 -23 27 -20 35 4 3 11 15 20 25 20 11 0 24 9 30 21 9 16 18
19 36 15 21 -6 27 -2 39 27 36 88 29 106 -41 93 -24 -5 -38 -14 -44 -30 -8
-21 -28 -36 -50 -36 -5 0 -12 16 -16 35 -3 19 -10 32 -16 29 -13 -9 -76 -141
-89 -188 -6 -22 -17 -49 -25 -60 -13 -19 -14 -19 -24 5 -9 23 -10 23 -8 -6 1
-17 -5 -41 -15 -55 -9 -13 -17 -34 -17 -47 0 -28 -14 -37 -30 -18 -8 9 -10 31
-6 62 15 115 18 185 9 180 -6 -4 -13 -45 -17 -91 -6 -90 -21 -136 -42 -136
-18 0 -45 53 -47 93 -2 18 -5 37 -9 42 -3 6 -9 32 -13 59 -6 38 -10 45 -17 32
-8 -15 -12 -11 -29 21 -22 43 -24 70 -7 75 6 2 8 10 4 17 -5 7 -13 10 -20 8
-6 -3 -11 6 -12 22 0 14 -11 48 -22 75 -19 43 -24 47 -38 35 -13 -11 -15 -26
-11 -78 3 -36 10 -67 15 -69 6 -2 8 -19 6 -40 -5 -33 -4 -35 9 -20 12 16 15
14 31 -22 10 -22 15 -49 11 -60 -6 -19 46 -106 94 -157 12 -12 21 -27 21 -33
0 -5 4 -10 9 -10 5 0 17 -20 26 -44 14 -37 15 -50 5 -81 -9 -27 -9 -39 0 -50
19 -23 24 -116 7 -155 l-15 -35 -10 26 c-13 32 -70 99 -84 99 -13 0 -3 -40 24
-100 12 -25 27 -67 34 -95 10 -42 13 -46 19 -27 8 25 25 30 25 7 0 -8 9 -24
20 -35 11 -11 20 -27 20 -35 0 -20 49 -119 61 -123 11 -5 12 -35 1 -47 -5 -6
6 -31 25 -60 19 -29 33 -42 33 -32 0 9 7 17 15 17 18 0 19 -14 3 -39 -10 -16
-7 -28 16 -72 27 -49 28 -55 17 -102 -11 -49 -11 -52 20 -90 27 -33 30 -42 20
-63 -6 -13 -15 -24 -20 -24 -10 0 -79 113 -110 182 -12 27 -27 47 -33 45 -6
-1 -18 12 -27 28 -9 17 -18 32 -21 35 -3 3 -16 28 -29 55 -13 28 -30 62 -37
77 -8 14 -14 33 -14 42 0 8 -9 20 -20 26 -11 6 -20 21 -20 34 0 13 -12 39 -27
59 -16 19 -33 43 -40 53 -10 17 -12 15 -12 -16 0 -19 6 -51 13 -71 9 -25 10
-43 3 -54 -6 -12 -5 -26 4 -44 l13 -26 4 33 c4 42 20 37 40 -13 9 -22 18 -42
22 -45 10 -8 50 -81 50 -91 0 -5 11 -26 23 -47 13 -20 22 -43 19 -50 -2 -7 16
-35 40 -61 78 -87 133 -153 137 -165 2 -6 12 -19 22 -29 24 -23 24 -57 1 -64
-15 -4 -18 -15 -19 -69 0 -48 3 -64 13 -64 8 0 14 -4 14 -9 0 -5 -9 -7 -20 -4
-15 4 -20 0 -20 -16 0 -23 10 -27 27 -10 18 18 27 -10 28 -84 0 -43 -4 -67
-11 -67 -12 0 -31 41 -36 77 -3 22 -3 22 -28 3 -23 -18 -24 -19 -7 -38 9 -10
17 -22 17 -26 0 -9 52 -89 63 -97 5 -4 4 -10 -2 -13 -6 -4 -11 -3 -11 3 0 5
-9 12 -20 16 -18 6 -28 19 -62 85 -7 14 -28 42 -47 63 -19 21 -41 50 -48 65
-7 15 -24 40 -38 56 -15 17 -23 37 -20 47 4 12 -7 24 -40 44 -26 15 -49 24
-52 21 -3 -3 6 -32 20 -63 14 -32 29 -71 32 -88 12 -54 16 -65 25 -65 4 0 4
17 -1 38 -11 49 -11 62 1 62 6 0 10 -5 10 -11 0 -6 17 -32 39 -58 37 -45 48
-63 90 -146 22 -45 50 -75 161 -166 41 -33 92 -81 113 -105 21 -24 44 -44 50
-44 7 0 0 11 -14 24 -28 25 -47 66 -30 66 5 0 17 8 27 17 33 33 56 27 106 -29
35 -38 45 -46 37 -26 -14 33 -6 58 19 58 11 0 25 7 32 15 21 26 40 18 40 -17
1 -18 7 -44 15 -58 l14 -25 1 33 c0 18 -5 40 -11 50 -8 13 -7 26 3 52 18 43
13 60 -16 60 -12 0 -35 13 -50 29 -22 23 -29 41 -32 86 -2 32 -7 61 -10 66 -3
5 5 22 18 38 13 16 28 37 35 47 10 16 12 11 12 -33 1 -32 -4 -53 -11 -56 -7
-2 -10 -8 -5 -12 4 -5 10 -6 13 -2 9 9 25 76 34 142 7 60 30 126 52 152 9 11
13 12 19 1 12 -19 10 -244 -2 -298 -6 -25 -13 -64 -16 -87 -3 -28 -10 -43 -19
-43 -8 0 -14 -4 -14 -10 0 -5 7 -10 15 -10 12 0 14 -8 10 -37 -13 -95 -9 -153
10 -153 8 0 15 7 15 17 0 9 2 14 5 12 11 -12 -8 -79 -23 -79 -12 0 -14 -9 -7
-52 4 -29 8 -64 8 -78 3 -37 32 -37 45 -1 9 25 8 32 -5 40 -11 6 -14 16 -9 35
8 34 36 35 36 1 0 -21 5 -25 29 -25 17 0 32 4 36 10 8 13 33 2 77 -32 20 -16
62 -40 92 -53 49 -22 71 -25 164 -25 71 0 112 -4 120 -12 14 -14 16 -134 2
-143 -5 -3 -16 8 -25 24 -18 35 -43 51 -79 51 -19 0 -26 -5 -26 -19 0 -10 -5
-32 -11 -50 -9 -24 -16 -31 -33 -29 -18 3 -21 11 -24 61 -4 67 -22 73 -35 11
-4 -21 -13 -43 -19 -49 -7 -7 -9 -2 -4 19 8 34 -10 86 -30 86 -9 0 -14 -17
-16 -52 -3 -51 -4 -53 -33 -53 -29 0 -30 2 -35 49 -7 65 -30 75 -30 12 0 -24
-4 -48 -10 -51 -5 -3 -10 3 -10 14 0 43 -22 71 -54 71 -17 0 -38 -5 -46 -10
-17 -11 -23 -70 -8 -87 14 -17 -33 -18 -49 -2 -9 9 -19 6 -39 -10 -39 -31 -51
-26 -69 29 -15 46 -19 50 -49 50 -55 0 -75 -44 -36 -77 33 -28 26 -47 -15 -40
-19 3 -35 2 -35 -4 0 -16 -57 -10 -64 7 -5 13 -11 10 -35 -15 -16 -17 -37 -31
-48 -32 -10 0 -33 -2 -52 -4 -21 -2 -40 3 -49 12 -13 12 -17 12 -32 -2 -25
-22 -34 -4 -21 41 6 21 8 41 5 46 -8 12 -58 10 -76 -4 -23 -19 -33 -84 -13
-92 8 -3 15 -10 15 -16 0 -13 -47 -13 -55 0 -4 6 -17 4 -36 -6 -17 -8 -40 -14
-52 -12 -22 3 -24 8 -26 81 -1 30 -5 37 -21 37 -18 0 -25 -11 -21 -34 4 -22
-22 -74 -39 -79 -22 -6 -45 16 -35 33 8 13 -3 50 -15 50 -5 0 -11 -14 -15 -30
-9 -42 -25 -37 -27 8 0 20 -2 43 -2 50 -1 14 -17 25 -53 36 -19 6 -23 4 -23
-16 0 -13 14 -51 30 -85 38 -77 50 -81 275 -90 125 -5 131 -6 151 -31 l21 -26
7 22 c10 30 41 49 96 57 25 4 70 13 100 22 98 27 124 32 182 37 52 4 59 2 87
-25 l30 -29 -22 -21 -22 -21 45 6 c25 4 70 9 100 11 149 12 250 29 250 41 0 7
-14 27 -31 44 -17 17 -29 34 -25 37 3 4 6 3 6 -1 0 -4 10 -2 21 5 14 7 19 7
15 0 -7 -10 19 -59 39 -74 5 -4 22 -5 36 -3 14 3 31 0 37 -6 18 -18 32 0 22
28 -13 32 -13 34 3 34 6 0 19 -15 28 -33 20 -41 46 -47 59 -12 12 30 30 25 30
-10 0 -17 8 -26 32 -34 40 -14 59 0 40 29 -6 10 -9 26 -6 34 3 8 9 36 14 62
l8 49 1 -40 c0 -23 10 -58 20 -79 11 -21 17 -43 15 -51 -7 -16 26 -29 40 -15
7 7 6 14 -2 22 -15 15 -16 58 -2 58 14 0 12 21 -4 39 -22 25 -77 173 -71 189
4 12 29 14 143 10 149 -5 188 -16 254 -68 20 -17 41 -30 47 -30 5 0 24 13 41
29 62 57 107 64 410 71 336 7 337 7 457 125 59 58 91 99 113 145 l31 65 -7
896 c-7 901 -4 1052 21 1086 21 28 39 5 25 -32 -14 -36 -10 -38 29 -19 18 9
43 14 57 11 17 -3 28 1 35 14 13 25 45 24 52 -1 4 -14 10 -18 22 -13 16 6 17
7 1 18 -22 17 -21 55 2 55 33 0 33 13 1 95 -19 50 -18 96 2 113 27 23 24 32
-12 32 -26 0 -31 3 -26 20 4 14 0 20 -11 21 -22 0 -65 56 -59 74 7 17 81 39
85 25 2 -6 18 -10 35 -10 24 0 28 3 17 10 -12 8 -13 13 -3 29 15 24 8 31 -31
31 -37 0 -82 -22 -78 -39 3 -13 -42 -33 -60 -26 -28 11 -49 87 -28 100 17 11
11 25 -11 25 -18 0 -20 -4 -15 -26 6 -24 5 -26 -17 -20 -17 4 -27 1 -31 -9
-15 -41 -74 3 -61 45 8 24 -2 25 -27 3 -18 -16 -22 -16 -68 1 -27 10 -58 15
-69 11 -15 -5 -24 1 -36 25 -9 18 -19 29 -22 26 -3 -3 -14 -1 -25 5 -15 8 -24
7 -38 -6 -17 -16 -19 -15 -33 12 l-15 28 -12 -26 c-10 -21 -18 -25 -47 -24
-19 1 -39 7 -46 14 -6 6 -23 11 -38 11 -14 0 -38 10 -53 21 -26 20 -29 21 -69
6 -23 -9 -55 -17 -72 -19 -22 -2 -31 -9 -33 -25 -2 -13 -14 -25 -32 -31 -16
-6 -31 -21 -35 -34 -4 -12 -16 -30 -28 -39 -27 -22 -39 -115 -20 -160 17 -41
17 -46 -7 -52 -13 -3 -20 -14 -20 -28 0 -12 -11 -37 -25 -55 -21 -27 -24 -38
-15 -53 12 -24 4 -49 -18 -55 -114 -32 -209 -1 -173 56 10 16 8 24 -14 49 -14
17 -25 42 -25 56 0 16 -7 27 -20 30 -21 6 -27 37 -10 48 22 14 11 103 -22 165
-17 33 -35 60 -39 60 -4 0 -21 11 -37 24 -21 18 -151 78 -166 76 0 0 -7 -4
-15 -9z m196 -127 c3 -8 1 -20 -6 -27 -16 -16 -14 -37 6 -59 13 -14 14 -23 5
-42 -7 -17 -7 -27 1 -35 17 -17 4 -22 -33 -11 -18 5 -39 19 -47 30 -8 11 -20
20 -28 20 -16 0 -45 27 -45 41 0 6 9 8 19 4 14 -4 18 -1 17 11 -1 17 75 84 95
84 5 0 12 -7 16 -16z m529 -9 c4 -10 13 -13 24 -10 10 3 22 0 27 -7 4 -8 20
-21 36 -31 26 -17 27 -18 11 -42 -9 -14 -22 -25 -29 -25 -7 0 -19 -7 -26 -16
-15 -19 -99 -57 -107 -49 -3 2 1 12 9 21 8 10 12 26 11 37 -2 11 5 35 15 54
17 33 17 35 1 47 -10 7 -18 18 -18 25 0 17 40 13 46 -4z m-796 -92 c0 -60 -12
-104 -27 -99 -22 9 -58 -13 -44 -27 16 -16 14 -27 -4 -21 -8 4 -15 12 -15 20
0 8 -9 14 -20 14 -12 0 -28 13 -40 33 -25 40 -25 47 0 47 11 0 23 7 26 15 9
22 54 44 92 45 28 0 32 -3 32 -27z m1153 -24 c46 -51 47 -67 5 -72 -112 -15
-128 -5 -128 79 l0 47 43 -7 c32 -5 51 -16 80 -47z m-1263 -175 c0 -8 -5 -14
-10 -14 -7 0 -7 -6 0 -19 15 -29 12 -50 -11 -82 -23 -33 -44 -36 -94 -12 -37
17 -60 63 -36 71 6 2 25 15 42 29 21 18 36 23 53 19 18 -4 25 -1 29 15 6 23
27 17 27 -7z m1269 0 c-18 -22 -4 -28 30 -14 28 11 32 10 65 -24 43 -42 44
-49 11 -81 -34 -35 -74 -33 -108 6 -25 28 -27 37 -21 78 8 54 12 63 25 55 6
-4 6 -11 -2 -20z m91 -195 c142 1 260 -2 263 -6 13 -20 -9 -68 -48 -106 -23
-23 -58 -67 -77 -97 -20 -30 -65 -90 -100 -132 -34 -42 -89 -113 -121 -157
-68 -92 -87 -105 -87 -60 0 17 4 38 9 47 13 27 22 114 11 107 -6 -3 -10 -19
-10 -34 0 -29 -21 -57 -33 -44 -4 3 -7 105 -7 225 0 179 -2 218 -14 218 -16 0
-42 -208 -33 -268 3 -20 0 -66 -7 -100 -15 -70 -31 -96 -45 -73 -6 9 -10 6
-15 -13 -10 -39 -27 -31 -71 31 -22 32 -71 96 -110 143 -79 97 -89 112 -110
156 -15 32 -62 70 -73 59 -4 -3 6 -28 21 -55 25 -44 28 -58 25 -129 -3 -72 3
-103 17 -89 8 8 9 51 1 96 -7 38 -6 42 12 42 13 0 32 -17 51 -46 26 -37 33
-62 41 -132 6 -48 13 -101 16 -118 5 -28 3 -32 -27 -43 -24 -8 -35 -8 -45 0
-26 21 -16 -9 13 -42 34 -37 111 -74 176 -82 64 -9 107 -39 107 -77 0 -16 -4
-30 -8 -32 -9 -3 -62 -93 -62 -104 0 -3 7 -1 16 7 12 9 20 10 33 2 19 -12 68
-6 77 8 8 14 44 10 50 -6 7 -18 64 -15 64 4 0 7 -13 30 -29 50 -19 23 -31 52
-33 76 -3 35 0 41 26 53 16 8 54 18 85 22 73 9 171 63 171 95 0 6 -15 18 -32
26 -38 16 -38 20 -16 165 11 72 20 100 43 130 34 46 44 54 60 48 7 -3 15 7 18
23 8 34 43 81 53 70 12 -12 10 -965 -3 -978 -7 -7 -22 -6 -49 6 -125 53 -298
107 -434 136 -58 12 -98 25 -103 35 -7 12 -12 12 -22 4 -11 -9 -40 -9 -115 -1
-55 6 -127 11 -158 11 -100 0 -93 -39 -90 475 l3 450 225 5 c124 3 229 3 233
1 5 -2 125 -3 267 -2z m-1171 -75 c22 20 51 15 51 -8 0 -24 20 -29 40 -11 24
21 36 14 44 -26 5 -25 10 -30 23 -24 39 16 48 11 48 -23 0 -31 2 -33 26 -28
36 7 58 -17 41 -45 -17 -26 -15 -31 11 -29 53 5 63 -12 27 -45 -21 -19 -19
-30 7 -30 9 0 21 -8 26 -17 9 -13 6 -21 -12 -35 l-24 -19 32 -14 c37 -15 39
-43 3 -48 -26 -4 -28 -14 -7 -32 25 -21 19 -50 -10 -50 -25 0 -35 -23 -15 -35
19 -12 10 -35 -17 -47 -16 -7 -29 -13 -31 -14 -2 -1 1 -11 7 -22 28 -52 -64
-42 -103 12 l-21 28 23 15 c12 9 22 23 22 33 0 10 7 23 15 30 8 7 13 16 10 20
-2 4 0 33 5 65 6 34 6 63 1 69 -5 6 -12 32 -16 59 -5 32 -12 47 -22 47 -8 0
-17 8 -20 19 -2 10 -16 24 -29 30 -13 6 -24 15 -24 21 0 5 -8 10 -18 10 -10 0
-27 7 -39 15 -11 8 -46 16 -76 19 -30 2 -59 6 -65 10 -6 3 -13 2 -17 -4 -3 -5
-16 -10 -27 -10 -31 0 -92 -23 -101 -38 -5 -7 -20 -17 -33 -22 -13 -5 -24 -16
-24 -24 0 -7 -7 -16 -15 -20 -8 -3 -15 -12 -15 -19 0 -8 -9 -22 -19 -31 -11
-10 -17 -24 -14 -32 3 -8 0 -21 -7 -29 -10 -12 -10 -18 0 -30 10 -13 10 -19
-4 -34 -15 -16 -15 -19 -1 -24 9 -4 15 -18 15 -36 0 -17 6 -31 16 -35 9 -3 14
-13 10 -21 -3 -9 3 -19 15 -26 29 -15 20 -49 -21 -77 -55 -37 -87 -23 -65 31
6 14 2 17 -24 17 -39 0 -50 23 -26 50 15 16 15 20 3 20 -8 0 -23 7 -34 15 -19
15 -18 16 10 39 l28 23 -31 11 c-17 6 -31 16 -31 23 0 16 31 38 55 39 16 0 14
4 -12 21 -41 26 -41 38 -3 52 34 13 36 19 15 37 -31 26 -9 54 34 43 24 -6 27
8 9 37 -17 26 4 41 44 33 27 -5 28 -4 22 26 -6 27 -4 31 15 31 12 0 31 -5 42
-10 17 -10 19 -7 19 25 0 28 4 35 19 35 11 0 23 -4 26 -10 11 -18 35 -11 35
10 0 28 27 36 50 15 20 -18 40 -13 40 10 0 25 25 23 47 -3 21 -25 23 -26 42
-8z m23 -553 c9 -8 10 -57 2 -97 -5 -25 -13 -34 -37 -40 -18 -4 -38 -7 -44 -7
-19 1 -11 -49 9 -55 9 -2 18 -13 20 -25 5 -31 28 -34 28 -3 0 14 5 26 10 26 6
0 10 -6 10 -14 0 -16 27 -29 41 -20 5 3 14 2 19 -1 6 -3 -3 -18 -20 -32 -25
-21 -38 -24 -80 -21 -28 1 -50 -1 -50 -6 0 -12 -59 1 -87 19 -23 15 -23 16 -6
42 10 15 28 38 41 52 27 30 28 51 2 51 -11 0 -20 6 -20 13 -1 6 -4 30 -9 53
-4 22 -4 50 0 61 7 18 14 20 86 15 43 -2 81 -7 85 -11z m803 -532 c19 -17 35
-37 35 -45 0 -8 7 -14 15 -14 8 0 17 -11 21 -25 3 -14 19 -32 34 -40 38 -19
53 -67 39 -120 -19 -69 -22 -105 -10 -105 6 0 11 -9 11 -20 0 -21 -33 -29 -45
-10 -3 6 -13 10 -21 10 -14 0 -15 -12 -9 -84 6 -72 5 -89 -11 -115 -10 -17
-23 -31 -28 -31 -6 0 -27 -12 -48 -26 -33 -23 -38 -32 -38 -65 0 -27 -4 -39
-14 -39 -28 0 -47 13 -62 41 -14 28 -54 41 -54 18 0 -7 -9 -9 -22 -4 -13 3
-72 10 -133 14 -118 9 -205 37 -205 66 0 21 -32 19 -75 -5 -20 -11 -50 -20
-67 -20 -30 0 -31 -1 -14 -19 17 -18 17 -20 -1 -30 -12 -6 -25 -6 -34 0 -23
14 -29 11 -29 -19 0 -22 -11 -36 -49 -65 -26 -20 -51 -37 -55 -37 -3 0 -6 13
-6 28 0 21 10 35 40 58 22 16 40 36 40 44 0 8 5 22 10 30 9 13 12 12 25 -4 11
-15 15 -16 16 -5 1 8 0 19 -1 24 -2 6 -4 35 -6 65 -2 61 19 116 48 126 10 3
27 18 38 34 38 53 146 65 253 29 41 -14 74 -19 99 -15 26 4 41 2 52 -10 14
-14 17 -13 28 13 7 15 18 31 24 35 42 27 94 91 100 124 5 25 15 41 34 52 30
17 53 71 40 93 -7 10 -11 10 -24 0 -9 -8 -16 -19 -16 -26 0 -21 -47 -35 -95
-28 -33 4 -50 2 -63 -9 -32 -29 -58 -30 -86 -5 -14 13 -26 28 -26 33 0 13 100
77 160 103 30 13 96 29 127 30 12 1 38 -13 58 -30z m-699 -343 c18 -14 18 -15
-9 -25 -16 -6 -38 -11 -50 -11 -33 0 -44 -11 -67 -62 -25 -56 -115 -140 -146
-136 -12 2 -29 -3 -38 -11 -9 -7 -34 -13 -57 -13 -22 1 -51 -3 -63 -8 -37 -14
-51 2 -33 38 l15 31 -29 -6 c-38 -7 -37 5 3 40 l33 29 -38 -6 c-52 -7 -44 11
19 46 30 17 64 28 90 28 43 0 143 30 179 54 28 19 51 23 116 25 34 1 63 -5 75
-13z m676 -418 c2 -12 16 -29 31 -37 15 -9 45 -43 67 -76 21 -33 52 -76 67
-97 29 -38 63 -56 63 -33 0 8 8 16 18 19 23 8 232 3 237 -4 9 -14 -59 -73
-112 -97 -62 -29 -89 -30 -303 -18 -184 10 -352 -17 -420 -67 l-27 -19 -47 29
c-57 36 -140 53 -291 57 -60 2 -119 4 -130 4 -15 1 -16 4 -7 13 7 7 12 31 12
54 0 38 2 42 30 47 16 4 131 5 255 4 246 -2 245 -3 204 55 -12 16 -20 31 -18
33 9 8 87 -38 112 -67 34 -40 34 -58 2 -58 -16 0 -25 6 -25 15 0 8 -9 15 -20
15 -23 0 -27 -22 -7 -39 8 -6 27 -14 44 -17 25 -5 34 -1 54 25 l24 31 128 5
c84 4 134 2 148 -6 11 -6 22 -9 24 -7 10 10 -29 85 -64 123 -22 24 -41 53 -41
62 0 10 -9 24 -20 31 -23 14 -27 42 -6 42 8 0 16 -10 18 -22z m-944 -227 c8
-4 14 -32 15 -67 l2 -59 -78 2 c-62 1 -87 6 -126 26 -41 22 -121 86 -121 98 0
8 296 8 308 0z"/>
<path d="M2640 7188 c-16 -22 -30 -49 -30 -60 0 -10 -9 -27 -19 -37 -21 -21
-36 -142 -29 -236 4 -59 4 -59 58 115 23 74 45 144 49 155 12 29 31 90 31 98
0 21 -34 1 -60 -35z"/>
<path d="M6263 6818 c-22 -24 -60 -70 -84 -103 -44 -60 -139 -236 -139 -256 0
-6 -7 -25 -15 -42 -13 -29 -28 -97 -41 -187 -6 -39 -34 -100 -46 -100 -10 0
-16 14 -64 145 -44 122 -125 289 -159 330 l-24 30 29 -80 c16 -44 39 -105 50
-135 38 -96 60 -173 72 -254 10 -60 17 -80 30 -84 23 -6 23 -18 1 -30 -16 -9
-16 -11 0 -27 19 -18 23 -34 31 -117 4 -36 2 -58 -4 -58 -10 0 -12 14 -14 87
-1 18 -7 38 -13 44 -11 10 -13 5 -13 -29 0 -31 -4 -42 -15 -42 -9 0 -18 8 -21
18 -40 123 -125 256 -214 330 -36 30 -69 64 -75 76 -22 46 -25 47 -60 19 -30
-24 -33 -29 -20 -43 8 -9 15 -22 15 -29 0 -9 8 -11 22 -8 32 9 97 -33 136 -86
17 -25 32 -50 32 -56 0 -6 4 -11 9 -11 5 0 12 -18 16 -41 4 -23 16 -50 26 -60
10 -10 16 -25 13 -33 -9 -23 15 -59 30 -47 15 12 33 -19 47 -81 5 -21 14 -57
20 -80 6 -24 12 -52 13 -63 2 -11 6 -27 9 -35 12 -32 23 -103 42 -252 7 -57
-10 -65 -19 -10 -11 67 -12 72 -19 78 -4 4 -7 -5 -7 -19 0 -15 -4 -27 -10 -27
-5 0 -10 5 -10 10 0 6 -7 10 -15 10 -9 0 -15 9 -15 23 0 29 -33 99 -74 156
-37 53 -191 211 -229 236 -42 27 -47 7 -7 -28 39 -35 144 -155 176 -202 11
-16 31 -57 43 -90 13 -33 28 -71 34 -85 6 -14 9 -36 8 -50 -1 -18 1 -21 7 -11
16 22 25 -6 18 -54 -5 -27 -3 -46 4 -50 6 -4 11 -21 11 -38 0 -31 4 -122 7
-179 1 -15 10 -34 19 -43 13 -14 14 -21 5 -36 -6 -10 -9 -25 -6 -34 4 -9 2
-26 -4 -38 -6 -12 -13 -53 -16 -92 -2 -38 -6 -81 -8 -95 -2 -16 1 -24 10 -22
17 3 15 -11 -6 -34 -11 -11 -27 -46 -37 -77 -10 -32 -22 -60 -27 -63 -22 -14
-26 17 -12 106 16 106 19 370 5 370 -5 0 -12 -8 -15 -17 -3 -10 -4 9 -2 42 2
33 -1 74 -7 90 -34 107 -145 284 -221 354 -35 33 -33 9 5 -49 40 -62 65 -117
95 -210 11 -31 20 -47 22 -37 5 23 22 12 22 -14 0 -11 -4 -17 -10 -14 -5 3
-10 -3 -10 -14 0 -13 5 -19 14 -15 20 8 28 -24 22 -86 -6 -59 5 -91 15 -45 l7
30 1 -31 c0 -16 -3 -34 -8 -40 -9 -8 -1 -110 15 -193 4 -19 1 -73 -6 -120 -15
-109 -18 -117 -31 -104 -6 6 -12 59 -13 119 l-2 109 -47 72 c-43 65 -115 139
-125 128 -3 -2 11 -30 30 -62 64 -109 80 -170 75 -291 -5 -118 -13 -164 -44
-234 -22 -49 -17 -68 18 -68 10 0 20 -4 24 -9 3 -5 31 -13 63 -17 31 -3 65
-11 75 -16 13 -7 30 -2 64 16 25 14 52 26 59 26 19 0 18 -26 -1 -34 -27 -10
-16 -24 25 -31 76 -13 173 -7 230 15 30 11 57 20 60 20 3 0 -2 5 -10 10 -9 6
-42 8 -81 4 -65 -6 -109 5 -109 26 0 20 62 79 90 85 38 8 46 21 20 35 -28 15
-25 29 13 71 36 41 59 51 172 75 44 9 100 23 124 30 25 8 55 14 68 14 13 0 23
5 23 10 0 13 -68 12 -189 0 -52 -6 -96 -8 -99 -5 -8 8 19 63 34 69 8 3 14 10
14 15 0 31 146 131 191 131 12 0 19 7 19 19 0 25 12 34 105 72 95 39 110 49
68 49 -37 0 -144 -33 -193 -60 -75 -40 -107 -52 -170 -61 -71 -10 -133 -37
-179 -78 -90 -81 -114 -106 -146 -155 -18 -27 -45 -35 -45 -14 0 21 108 217
147 265 21 27 61 68 88 93 28 25 52 48 55 51 21 26 266 189 285 189 2 0 28 11
57 24 29 14 62 27 73 29 11 3 4 5 -16 6 -52 1 -161 -34 -249 -82 -94 -50 -111
-64 -207 -159 -42 -43 -81 -78 -86 -78 -19 0 4 86 38 142 19 31 35 59 35 63 0
10 103 169 117 180 7 6 27 31 45 56 57 81 308 331 366 364 37 22 43 40 10 30
-32 -9 -122 -64 -152 -92 -14 -13 -29 -23 -33 -23 -16 -1 -51 -37 -55 -56 -2
-11 -11 -19 -23 -19 -13 0 -20 -7 -20 -20 0 -24 -29 -55 -51 -55 -9 0 -18 -8
-21 -19 -2 -10 -16 -24 -29 -31 -13 -8 -24 -19 -24 -27 0 -7 -4 -13 -10 -13
-5 0 -26 -30 -46 -66 -20 -36 -43 -68 -50 -71 -8 -3 -14 -11 -14 -19 0 -8 -8
-14 -19 -14 -14 0 -17 6 -13 25 2 14 -1 31 -7 39 -9 11 -7 15 8 19 21 5 33 62
32 154 0 29 4 55 9 58 6 3 10 19 10 36 0 22 5 29 19 29 20 0 31 25 31 73 0 15
5 27 10 27 6 0 10 16 10 35 0 19 4 35 9 35 5 0 30 42 55 93 66 133 102 192
225 367 7 11 9 20 4 20 -20 0 -204 -206 -223 -250 -5 -14 -35 -65 -65 -115
-30 -49 -55 -95 -55 -101 0 -6 -7 -25 -15 -40 -8 -16 -15 -37 -15 -46 0 -10
-4 -18 -9 -18 -6 0 -14 -19 -18 -42 -8 -40 -9 -41 -26 -23 -12 12 -16 25 -12
39 8 29 26 187 30 266 1 36 5 83 9 105 4 27 3 34 -3 20 -8 -19 -9 -19 -15 5
-3 14 -2 41 3 60 6 22 10 28 11 15 1 -12 5 -7 10 15 5 19 6 45 4 56 -8 30 61
241 113 349 30 63 116 208 141 238 31 35 -5 15 -45 -25z m-118 -2018 c4 -6
-13 -36 -37 -67 -23 -30 -53 -69 -65 -86 -20 -27 -80 -68 -140 -96 -11 -5 -24
-15 -28 -20 -7 -13 -45 -15 -45 -2 0 8 48 61 160 177 88 90 138 121 155 94z"/>
<path d="M2595 4559 c-9 -13 -10 -12 50 -34 28 -10 63 -29 78 -42 16 -12 38
-23 50 -23 12 0 36 -9 52 -20 17 -11 44 -29 62 -41 17 -11 34 -26 37 -34 3 -8
14 -15 24 -15 11 0 31 -9 46 -21 14 -11 31 -17 36 -14 14 9 -5 32 -33 41 -12
4 -41 25 -63 48 -74 73 -142 118 -234 152 -42 16 -96 18 -105 3z"/>
<path d="M5135 4260 c-3 -5 -4 -10 0 -10 3 0 0 -10 -7 -22 -7 -13 -13 -27 -14
-33 0 -5 -2 -14 -2 -19 -1 -6 -8 -2 -15 8 -12 16 -16 17 -35 5 -28 -18 -40 -4
-18 20 17 19 17 20 -5 32 -17 9 -24 9 -27 0 -5 -16 -22 -14 -22 4 0 10 -10 15
-28 15 -37 0 -43 -7 -31 -34 13 -27 -4 -76 -26 -76 -11 0 -15 11 -15 40 0 28
-4 40 -15 42 -8 0 -21 1 -27 2 -8 1 -12 -8 -10 -21 4 -25 -7 -30 -25 -12 -7 7
-18 9 -26 6 -20 -7 -40 -72 -33 -101 6 -23 7 -23 43 -10 21 7 52 13 69 14 17
0 46 5 63 11 27 10 36 9 49 -4 14 -15 13 -17 -9 -25 -13 -5 -51 -12 -84 -15
-33 -3 -70 -9 -83 -13 -24 -7 -102 22 -102 38 0 13 -51 78 -61 78 -4 0 -2 -19
7 -41 8 -23 17 -73 20 -110 7 -70 11 -78 31 -58 6 6 39 12 74 13 35 2 100 9
144 16 49 7 123 10 191 7 74 -3 115 -2 123 6 7 7 16 6 29 -6 12 -11 36 -17 68
-17 66 0 79 9 63 44 -11 23 -10 29 2 37 8 5 20 9 27 9 12 0 14 -7 16 -65 1
-27 6 -31 41 -39 22 -4 67 -15 100 -23 122 -30 136 -32 142 -16 4 9 -1 19 -10
24 -9 5 -24 17 -33 27 -15 14 -33 17 -104 15 -76 -3 -89 0 -105 17 -10 11 -15
23 -12 26 13 13 74 20 112 13 22 -4 101 -20 175 -34 165 -33 288 -41 400 -26
168 21 159 17 191 96 39 96 38 106 -6 91 -45 -16 -51 -22 -35 -41 15 -18 5
-65 -14 -65 -7 0 -21 18 -31 40 -18 40 -29 48 -39 31 -3 -5 1 -11 9 -15 18 -6
20 -27 3 -44 -8 -8 -17 -8 -30 -1 -15 8 -24 6 -39 -7 -18 -17 -20 -16 -43 5
-21 20 -24 21 -30 5 -6 -15 -9 -14 -21 10 -8 16 -15 35 -15 42 0 9 -11 14 -30
14 -22 0 -33 -6 -40 -22 -20 -48 -35 -59 -63 -45 -14 6 -28 20 -29 30 -4 24
-18 26 -32 4 -8 -14 -8 -20 4 -28 13 -9 13 -10 0 -7 -8 3 -19 23 -24 46 -6 23
-15 42 -21 42 -17 0 -35 -22 -35 -41 0 -10 -5 -21 -12 -25 -7 -5 -9 0 -6 14 3
12 0 29 -8 39 -12 16 -15 16 -24 3 -6 -8 -8 -25 -5 -37 4 -17 2 -21 -10 -17
-8 4 -15 11 -15 16 0 6 -7 8 -15 5 -8 -4 -17 -2 -21 4 -3 5 -15 9 -27 7 -18
-2 -22 2 -22 25 1 34 -3 34 -35 -5 l-26 -31 -30 21 c-24 17 -36 20 -64 13 -30
-7 -58 -7 -90 -2 -3 1 -5 18 -5 38 0 52 -27 52 -39 1 -5 -21 -13 -38 -17 -38
-12 0 -29 35 -29 59 0 26 -16 27 -23 2 -2 -10 -14 -24 -26 -30 -20 -11 -21 -9
-21 29 0 38 -2 40 -29 40 -17 0 -33 -4 -36 -10z"/>
<path d="M3668 3943 c-11 -3 -18 -14 -18 -28 0 -13 -4 -27 -10 -30 -5 -3 -10
-17 -10 -31 0 -30 -25 -32 -41 -3 l-11 21 -26 -25 c-42 -38 -71 -41 -83 -9 -6
15 -8 41 -4 59 6 32 5 33 -26 33 -45 0 -167 -22 -151 -27 18 -7 15 -41 -5 -46
-17 -4 -17 -5 0 -6 14 -1 17 -6 11 -23 -17 -56 -54 -32 -54 35 0 39 0 39 -31
33 -17 -3 -35 -6 -40 -6 -5 0 -9 -5 -9 -11 0 -5 10 -9 23 -7 18 2 23 -2 25
-24 3 -22 -2 -30 -21 -37 -14 -5 -27 -16 -30 -23 -10 -25 -28 15 -25 55 3 32
1 37 -17 37 -28 -1 -60 -26 -43 -34 10 -5 10 -7 1 -12 -16 -7 -6 -56 14 -67
17 -10 7 -27 -16 -27 -32 0 -54 35 -48 75 6 40 -8 45 -53 20 l-25 -13 26 -10
c40 -16 51 -58 23 -86 -20 -20 -63 -21 -69 -1 -3 8 -8 23 -12 33 -3 9 -5 25
-4 36 3 21 -1 20 -119 -9 -36 -8 -93 -20 -127 -27 -35 -6 -63 -15 -63 -19 0
-4 31 -39 68 -77 69 -70 113 -92 150 -73 9 5 37 14 62 20 25 7 61 17 80 22 19
6 53 14 75 19 22 5 69 16 105 24 118 29 154 34 205 27 41 -5 50 -10 50 -25 0
-13 -10 -22 -28 -27 -15 -4 -41 -19 -58 -33 -17 -14 -38 -26 -47 -26 -34 0
-170 -51 -176 -66 -7 -19 136 -89 202 -100 23 -4 45 -11 48 -15 3 -5 17 -9 31
-9 23 0 341 68 422 90 25 7 37 5 48 -6 19 -19 32 -18 71 6 18 11 39 20 46 20
8 0 16 6 19 13 5 14 95 43 104 33 3 -3 -5 -10 -18 -15 -21 -9 -22 -10 -4 -11
11 0 30 -3 42 -6 18 -5 25 -1 33 21 14 36 53 83 97 117 40 30 37 33 -41 42
-60 7 -74 18 -81 65 -13 79 -15 82 -58 101 -23 10 -66 25 -94 34 -47 13 -54
13 -68 0 -8 -8 -19 -13 -24 -10 -17 11 -33 -21 -21 -43 9 -17 8 -21 -5 -21 -8
0 -16 6 -16 13 -2 25 3 52 13 65 15 17 11 19 -50 24 -43 4 -50 3 -41 -8 6 -8
17 -14 24 -14 7 0 16 -12 20 -27 5 -20 2 -31 -11 -40 -15 -11 -19 -11 -27 2
-10 18 -34 20 -40 3 -2 -7 -7 1 -11 19 -4 18 -3 40 3 51 6 11 7 22 4 26 -7 6
-8 6 -35 -1z"/>
<path d="M4871 3916 c-23 -8 -31 -15 -23 -20 7 -4 10 -11 7 -16 -3 -5 -1 -11
5 -15 15 -9 -19 -55 -36 -48 -9 3 -14 20 -14 49 0 47 -12 55 -50 34 -16 -9
-18 -15 -9 -36 6 -19 6 -31 -2 -40 -21 -26 -39 -16 -39 21 0 30 -3 35 -23 35
-27 0 -121 -37 -153 -60 -16 -11 -23 -31 -29 -78 -7 -61 -7 -62 -38 -63 -55
-1 -68 -6 -103 -43 -43 -44 -43 -56 -1 -56 18 0 37 -4 43 -9 13 -12 101 -38
154 -46 25 -3 69 -13 99 -21 61 -17 77 -11 42 17 -13 11 -22 22 -19 24 7 7 89
-30 119 -53 13 -10 43 -28 67 -39 48 -23 41 -38 -13 -27 -23 4 -35 2 -35 -5 0
-7 27 -11 76 -11 67 0 76 2 81 20 4 14 14 20 34 20 15 0 31 -4 34 -10 3 -5 22
-10 41 -10 20 0 45 -5 56 -11 29 -15 145 -16 160 -1 7 7 23 12 36 12 13 0 53
14 89 30 35 17 68 30 72 30 5 0 14 7 22 16 17 21 9 25 -109 63 -104 34 -223
56 -357 66 -91 7 -134 20 -119 35 5 5 90 10 189 11 99 1 193 6 210 11 18 5 43
4 61 -2 18 -6 78 -19 135 -30 57 -10 147 -30 199 -44 52 -14 104 -26 115 -26
23 1 80 50 115 101 14 19 30 40 37 47 22 23 15 32 -26 32 -34 0 -186 28 -248
46 -20 5 -21 3 -16 -33 4 -29 1 -44 -12 -56 -9 -10 -20 -15 -25 -12 -5 3 -11
1 -15 -5 -10 -17 -55 20 -55 45 0 13 12 37 26 54 l25 30 -28 6 c-15 4 -41 11
-57 16 -52 16 -69 12 -62 -16 7 -28 4 -30 -24 -13 -16 11 -22 9 -34 -7 -17
-23 -5 -45 25 -45 11 0 19 -4 19 -10 0 -5 -14 -10 -30 -10 -23 0 -33 6 -39 22
-12 33 2 72 27 76 12 2 22 7 22 12 0 7 -75 28 -110 29 -8 1 -46 3 -85 5 -38 2
-58 2 -43 0 30 -6 45 -43 28 -74 -11 -21 -30 -27 -30 -9 0 7 -11 8 -31 4 l-32
-7 6 38 c4 20 12 41 19 45 8 5 2 10 -17 15 -30 7 -52 -2 -69 -29 -8 -13 -8
-20 2 -26 11 -7 11 -9 -2 -14 -9 -4 -16 -16 -16 -27 0 -11 -4 -20 -9 -20 -18
0 -26 24 -26 75 l0 50 -40 3 -39 3 19 -21 c41 -45 25 -100 -30 -100 -29 0 -34
4 -40 30 -4 17 -4 44 0 60 7 34 1 36 -54 16z"/>
<path d="M2973 3428 c3 -13 11 -54 18 -91 6 -37 17 -74 24 -81 7 -7 14 -21 16
-31 4 -20 49 -46 154 -89 130 -52 163 -63 345 -112 30 -9 69 -20 86 -25 17 -5
42 -9 57 -9 14 0 37 -4 52 -10 51 -19 351 -42 555 -41 286 1 558 30 757 82 65
17 134 34 153 38 47 10 242 81 254 92 6 5 18 9 27 9 9 0 22 6 28 14 7 8 26 18
42 21 22 5 33 17 48 51 33 73 52 204 31 204 -6 0 -56 -22 -113 -48 -56 -27
-140 -63 -187 -81 -47 -18 -93 -37 -102 -42 -10 -5 -25 -9 -35 -9 -9 0 -30 -4
-47 -10 -78 -24 -135 -39 -188 -50 -44 -9 -58 -16 -58 -29 0 -9 -5 -22 -12
-29 -9 -9 -9 -12 1 -12 9 0 11 -8 8 -22 -4 -12 -1 -28 5 -35 15 -18 -17 -29
-37 -13 -21 17 -34 71 -23 93 11 21 18 21 -152 2 -74 -9 -219 -18 -322 -22
-104 -3 -188 -8 -188 -11 0 -3 7 -10 16 -17 21 -15 28 -69 11 -83 -12 -10 -38
-15 -69 -13 -23 1 -25 67 -3 97 19 28 11 34 -43 34 -91 0 -459 56 -517 79 -30
12 -86 29 -122 36 -41 8 -46 -16 -8 -33 22 -10 24 -15 14 -33 -9 -17 -8 -25 5
-37 14 -14 17 -12 32 15 16 27 23 31 68 32 30 0 53 -4 58 -12 12 -19 9 -73 -4
-85 -20 -16 -69 -12 -75 7 -3 9 -7 22 -9 29 -3 11 -8 10 -20 -3 -23 -23 -66
-15 -80 14 -17 33 -33 41 -62 30 -14 -5 -29 -6 -34 -1 -14 14 11 70 35 76 30
7 15 19 -63 49 -88 35 -95 36 -96 12 -1 -51 -37 -94 -50 -60 -4 8 -17 15 -30
15 -17 0 -24 6 -24 20 0 11 4 20 9 20 5 0 11 9 14 20 3 13 14 20 29 20 15 0
-6 15 -62 45 -98 51 -125 56 -117 23z"/>
<path d="M1593 7283 c-26 -5 -89 -73 -118 -128 l-19 -37 34 -28 c19 -16 47
-36 62 -45 l27 -16 51 73 c44 62 51 78 48 112 -2 33 -9 43 -33 56 -16 9 -40
15 -52 13z"/>
<path d="M7047 6995 c-43 -7 -81 -16 -84 -19 -8 -7 62 -131 73 -131 10 0 144
148 144 159 0 9 -45 6 -133 -9z"/>
<path d="M0 25 l0 -25 4320 0 4320 0 0 25 0 25 -4320 0 -4320 0 0 -25z"/>
</g>
</svg>
